<?xml version="1.0" encoding="utf-8"?>
<!-- Generator: Adobe Illustrator 17.0.0, SVG Export Plug-In . SVG Version: 6.00 Build 0)  -->
<!DOCTYPE svg PUBLIC "-//W3C//DTD SVG 1.1//EN" "http://www.w3.org/Graphics/SVG/1.1/DTD/svg11.dtd">
<svg version="1.1" id="Capa_1" xmlns="http://www.w3.org/2000/svg" xmlns:xlink="http://www.w3.org/1999/xlink" x="0px" y="0px"
	 width="312.182px" height="416.409px" viewBox="0 0 312.182 416.409" enable-background="new 0 0 312.182 416.409"
	 xml:space="preserve">
<ellipse cx="135.804" cy="379.136" rx="47.037" ry="8.704"/>
<g>
	<g>
		<g>
			<g>
				<g>
					<g>
						
							<path fill-rule="evenodd" clip-rule="evenodd" fill="none" stroke="#010101" stroke-width="3.1515" stroke-linecap="round" stroke-linejoin="round" stroke-miterlimit="22.9256" d="
							M132.009,363.852c-2.778,3.678-4.4,10.438-3.896,14.799h13.953h9.366c11.997,0,9.685-10.011,4.152-13.448
							C149.694,360.957,139.489,358.529,132.009,363.852z"/>
						<path fill-rule="evenodd" clip-rule="evenodd" fill="#96887F" d="M132.009,363.852c-2.778,3.678-4.4,10.438-3.896,14.799
							h13.953h9.366c11.997,0,9.685-10.011,4.152-13.448C149.694,360.957,139.489,358.529,132.009,363.852z"/>
					</g>
					<path fill-rule="evenodd" clip-rule="evenodd" fill="#6E645D" d="M143.912,376.035h-13.96c-0.404-3.554,0.59-8.699,2.483-12.47
						c-0.148,0.093-0.288,0.186-0.427,0.287c-2.778,3.678-4.4,10.438-3.896,14.799h13.953h9.366c5.222,0,7.737-1.894,8.451-4.315
						c-1.381,1.04-3.523,1.7-6.604,1.7H143.912z"/>
					<path fill-rule="evenodd" clip-rule="evenodd" fill="#BDACA1" d="M147.599,363.735c2.599,0.791,4.982,1.979,6.906,3.368
						c2.701,1.668,4.626,4.897,4.525,7.768c0.31-0.163,0.59-0.349,0.853-0.536c0.923-3.151-1.18-7.194-4.299-9.134
						c-1.902-1.366-4.237-2.545-6.79-3.337c-0.544-0.171-1.102-0.319-1.669-0.451c-0.598-0.139-1.203-0.264-1.816-0.357
						c-2.436-0.373-4.959-0.357-7.396,0.187c-0.139,0.031-0.279,0.062-0.419,0.101c-0.691,0.17-1.381,0.388-2.057,0.652
						c-0.544,0.217-1.078,0.458-1.606,0.737c-0.474,0.248-0.939,0.528-1.397,0.83c-0.272,0.535-0.528,1.109-0.761,1.699
						c0.985-0.629,2.01-1.117,3.057-1.505c0.76-0.272,1.529-0.49,2.305-0.652c0.791-0.171,1.591-0.279,2.397-0.349
						c2.033-0.155,4.082,0.015,6.046,0.427C146.202,363.339,146.908,363.518,147.599,363.735z"/>
				</g>
				<g>
					<path fill-rule="evenodd" clip-rule="evenodd" fill="#010101" d="M169.629,380.373h-28.153c-6.123,0,4.338-14.279,9.056-16.692
						c3.632-2.15,7.621-1.925,9.894-1.288c2.235,0.637,3.562,0.977,5.339,2.413c4.361,3.508,6.922,8.994,5.525,14.279l-0.341,1.288
						H169.629z"/>
					<path fill-rule="evenodd" clip-rule="evenodd" fill="#96887F" d="M139.117,378.651h30.513
						C173.114,365.528,147.924,350.597,139.117,378.651z"/>
					<path fill-rule="evenodd" clip-rule="evenodd" fill="#6E645D" d="M169.629,378.651h-23.234h-7.279
						c0.373-1.179,1.451-3.818,1.87-4.858c7.644,3.81,20.766,2.762,28.869,3.732C169.8,377.905,169.73,378.278,169.629,378.651z"/>
					<path fill-rule="evenodd" clip-rule="evenodd" fill="#BDACA1" d="M159.751,364.062c-3.965-1.467-7.892-0.729-8.777,1.66
						c-0.884,2.382,1.614,5.51,5.579,6.977c3.958,1.466,7.892,0.729,8.777-1.653C166.216,368.664,163.716,365.536,159.751,364.062z"
						/>
					<path fill-rule="evenodd" clip-rule="evenodd" fill="#BDACA1" d="M168.955,378.651h0.675
						c2.895-10.918-14.053-23.079-24.902-10.701C155.273,357.45,170.654,368.283,168.955,378.651z"/>
				</g>
			</g>
			<g>
				<g>
					<path fill-rule="evenodd" clip-rule="evenodd" fill="#010101" d="M152.418,345.045l-2.134,15.776
						c-0.551,4.035-6.511,4.796-9.468,4.462c-3.143-0.365-7.589-1.078-8.179-5.323l-1.241-13.906
						C137.247,352.199,150.284,349.343,152.418,345.045z"/>
				</g>
				<path fill-rule="evenodd" clip-rule="evenodd" fill="#96887F" d="M148.562,360.549l0.876-6.464l-15.955,0.077l0.76,5.463
					c0.698,4.974,3.283,5.277,6.984,5.704C144.991,365.764,147.987,364.802,148.562,360.549z"/>
				<path fill-rule="evenodd" clip-rule="evenodd" fill="#6E645D" d="M136.595,354.147l-3.112,0.015l0.76,5.463
					c0.698,4.974,3.283,5.277,6.984,5.704c1.179,0.132,2.281,0.132,3.252-0.062l-0.148-0.016c-3.709-0.427-6.286-0.729-6.984-5.703
					L136.595,354.147z"/>
				<g>
					
						<path fill-rule="evenodd" clip-rule="evenodd" fill="none" stroke="#010101" stroke-width="2.7844" stroke-miterlimit="22.9256" d="
						M131.295,346.837c7.101,1.599,14.108,1.459,21.038-0.093l0.046,9.498c-6.774,2.165-13.766,2.406-21.045,0.101L131.295,346.837z
						"/>
					<path fill-rule="evenodd" clip-rule="evenodd" fill="#96887F" d="M131.295,346.837c7.101,1.599,14.108,1.459,21.038-0.093
						l0.046,9.498c-6.774,2.165-13.766,2.406-21.045,0.101L131.295,346.837z"/>
				</g>
				<path fill-rule="evenodd" clip-rule="evenodd" fill="#6E645D" d="M131.295,346.837c0.931,0.21,1.863,0.396,2.794,0.544
					l0.038,7.768c6.278,1.987,12.347,2.08,18.252,0.675v0.419c-6.774,2.165-13.766,2.406-21.045,0.101L131.295,346.837z"/>
				<path fill-rule="evenodd" clip-rule="evenodd" fill="#BDACA1" d="M131.295,346.837c7.101,1.599,14.108,1.459,21.038-0.093
					l0.007,1.055c-6.929,1.553-13.937,1.692-21.037,0.094L131.295,346.837z"/>
			</g>
		</g>
		<g>
			<g>
				<g>
					<g>
						
							<path fill-rule="evenodd" clip-rule="evenodd" fill="none" stroke="#010101" stroke-width="3.1515" stroke-linecap="round" stroke-linejoin="round" stroke-miterlimit="22.9256" d="
							M105.08,363.852c-2.778,3.678-4.4,10.438-3.896,14.799h13.953h9.366c11.997,0,9.685-10.011,4.152-13.448
							C122.766,360.957,112.561,358.529,105.08,363.852z"/>
						<path fill-rule="evenodd" clip-rule="evenodd" fill="#96887F" d="M105.08,363.852c-2.778,3.678-4.4,10.438-3.896,14.799
							h13.953h9.366c11.997,0,9.685-10.011,4.152-13.448C122.766,360.957,112.561,358.529,105.08,363.852z"/>
					</g>
					<path fill-rule="evenodd" clip-rule="evenodd" fill="#6E645D" d="M116.984,376.035h-13.96c-0.404-3.554,0.59-8.699,2.483-12.47
						c-0.148,0.093-0.288,0.186-0.427,0.287c-2.778,3.678-4.4,10.438-3.896,14.799h13.953h9.366c5.222,0,7.737-1.894,8.451-4.315
						c-1.381,1.04-3.523,1.7-6.604,1.7H116.984z"/>
					<path fill-rule="evenodd" clip-rule="evenodd" fill="#BDACA1" d="M120.67,363.735c2.599,0.791,4.982,1.979,6.906,3.368
						c2.701,1.668,4.626,4.897,4.525,7.768c0.31-0.163,0.59-0.349,0.853-0.536c0.923-3.151-1.18-7.194-4.299-9.134
						c-1.902-1.366-4.237-2.545-6.79-3.337c-0.544-0.171-1.102-0.319-1.669-0.451c-0.598-0.139-1.203-0.264-1.816-0.357
						c-2.436-0.373-4.959-0.357-7.396,0.187c-0.139,0.031-0.279,0.062-0.419,0.101c-0.691,0.17-1.381,0.388-2.057,0.652
						c-0.544,0.217-1.078,0.458-1.606,0.737c-0.474,0.248-0.939,0.528-1.397,0.83c-0.272,0.535-0.528,1.109-0.761,1.699
						c0.985-0.629,2.01-1.117,3.057-1.505c0.76-0.272,1.529-0.49,2.305-0.652c0.791-0.171,1.591-0.279,2.397-0.349
						c2.033-0.155,4.082,0.015,6.046,0.427C119.273,363.339,119.98,363.518,120.67,363.735z"/>
				</g>
				<g>
					<path fill-rule="evenodd" clip-rule="evenodd" fill="#010101" d="M142.701,380.373h-28.153c-6.123,0,4.338-14.279,9.056-16.692
						c3.632-2.15,7.621-1.925,9.894-1.288c2.235,0.637,3.562,0.977,5.339,2.413c4.361,3.508,6.922,8.994,5.525,14.279l-0.341,1.288
						H142.701z"/>
					<path fill-rule="evenodd" clip-rule="evenodd" fill="#96887F" d="M112.188,378.651h30.513
						C146.185,365.528,120.996,350.597,112.188,378.651z"/>
					<path fill-rule="evenodd" clip-rule="evenodd" fill="#6E645D" d="M142.701,378.651h-23.234h-7.279
						c0.373-1.179,1.451-3.818,1.87-4.858c7.644,3.81,20.766,2.762,28.869,3.732C142.872,377.905,142.802,378.278,142.701,378.651z"
						/>
					<path fill-rule="evenodd" clip-rule="evenodd" fill="#BDACA1" d="M132.823,364.062c-3.965-1.467-7.892-0.729-8.777,1.66
						c-0.884,2.382,1.614,5.51,5.579,6.977c3.958,1.466,7.892,0.729,8.777-1.653C139.287,368.664,136.788,365.536,132.823,364.062z"
						/>
					<path fill-rule="evenodd" clip-rule="evenodd" fill="#BDACA1" d="M142.026,378.651h0.675
						c2.895-10.918-14.053-23.079-24.902-10.701C128.345,357.45,143.725,368.283,142.026,378.651z"/>
				</g>
			</g>
			<g>
				<g>
					<path fill-rule="evenodd" clip-rule="evenodd" fill="#010101" d="M125.49,345.045l-2.134,15.776
						c-0.551,4.035-6.511,4.796-9.468,4.462c-3.143-0.365-7.589-1.078-8.179-5.323l-1.241-13.906
						C110.319,352.199,123.356,349.343,125.49,345.045z"/>
				</g>
				<path fill-rule="evenodd" clip-rule="evenodd" fill="#96887F" d="M121.633,360.549l0.876-6.464l-15.955,0.077l0.76,5.463
					c0.698,4.974,3.283,5.277,6.984,5.704C118.063,365.764,121.059,364.802,121.633,360.549z"/>
				<path fill-rule="evenodd" clip-rule="evenodd" fill="#6E645D" d="M109.667,354.147l-3.112,0.015l0.76,5.463
					c0.698,4.974,3.283,5.277,6.984,5.704c1.179,0.132,2.281,0.132,3.252-0.062l-0.148-0.016c-3.709-0.427-6.286-0.729-6.984-5.703
					L109.667,354.147z"/>
				<g>
					
						<path fill-rule="evenodd" clip-rule="evenodd" fill="none" stroke="#010101" stroke-width="2.7844" stroke-miterlimit="22.9256" d="
						M104.366,346.837c7.101,1.599,14.108,1.459,21.038-0.093l0.046,9.498c-6.774,2.165-13.766,2.406-21.045,0.101L104.366,346.837z
						"/>
					<path fill-rule="evenodd" clip-rule="evenodd" fill="#96887F" d="M104.366,346.837c7.101,1.599,14.108,1.459,21.038-0.093
						l0.046,9.498c-6.774,2.165-13.766,2.406-21.045,0.101L104.366,346.837z"/>
				</g>
				<path fill-rule="evenodd" clip-rule="evenodd" fill="#6E645D" d="M104.366,346.837c0.931,0.21,1.863,0.396,2.794,0.544
					l0.038,7.768c6.278,1.987,12.347,2.08,18.252,0.675v0.419c-6.774,2.165-13.766,2.406-21.045,0.101L104.366,346.837z"/>
				<path fill-rule="evenodd" clip-rule="evenodd" fill="#BDACA1" d="M104.366,346.837c7.101,1.599,14.108,1.459,21.038-0.093
					l0.007,1.055c-6.929,1.553-13.937,1.692-21.037,0.094L104.366,346.837z"/>
			</g>
		</g>
		<g>
			<path d="M157.411,309.396v32.285c0,0-2.728,7.093-4.365,7.639c-1.637,0.546-1.637,0.546-1.637,0.546s-11.413-2.137-20.917,1.182
				c0,0-4.404-1.319-4.362-7.73c0.042-6.411,1.134-33.921,1.134-33.921H157.411z"/>
			<path fill="#27AAE1" d="M130.796,347.699c-0.672-0.561-1.59-1.796-1.572-4.36c0.033-5.041,0.733-23.562,1.015-30.849h24.079
				v28.605c-0.925,2.307-2.088,4.636-2.717,5.446l-0.447,0.149c-1.401-0.212-4.457-0.594-8.217-0.594
				C138.432,346.095,134.356,346.634,130.796,347.699z"/>
			<g>
				<path d="M124.744,321.771c-0.308-4.27-0.983-5.321-1.011-5.364c0.127,0.19-0.814-5.545-0.814-5.545c0.878-0.066,4.154,0,5.078,0
					c8.698,0,16.545,2.891,16.875,3.014l3.381,1.261l-1.763,3.149c-2.349,4.195-12.512,5.774-18.36,6.342l-3.156,0.306
					L124.744,321.771z"/>
				<path fill="#27AAE1" d="M125.51,314.046c0,0,1.772-0.083,2.319,7.503c0,0,15.137-0.331,15.96-6.458
					C143.79,315.091,134.65,313.364,125.51,314.046z"/>
			</g>
			<path d="M131.766,309.396v32.285c0,0-2.728,7.093-4.365,7.639c-1.637,0.546-1.637,0.546-1.637,0.546s-11.413-2.137-20.917,1.182
				c0,0-4.404-1.319-4.362-7.73c0.042-6.411,1.134-33.921,1.134-33.921H131.766z"/>
			<path fill="#27AAE1" d="M105.151,347.699c-0.672-0.561-1.59-1.796-1.572-4.36c0.033-5.041,0.733-23.562,1.015-30.849h24.079
				v28.605c-0.925,2.307-2.088,4.636-2.717,5.446l-0.447,0.149c-1.401-0.212-4.457-0.594-8.217-0.594
				C112.787,346.095,108.711,346.634,105.151,347.699z"/>
			<path fill="#1C75BC" d="M112.668,315.63c0,0-1.771,16.415,16.005,17.188v8.277c0,0-2.141,4.915-3.164,5.595
				c0,0-11.729-2.207-20.358,1.01c0,0-2.091-1.136-1.759-5.923l1.081-26.146H112.668"/>
			<path fill="#1C75BC" d="M141.265,321.957c0,0,0.514,12.397,13.053,12.052c0,0,0,7.085-0.008,7.105
				c-0.385,2.051-1.507,3.828-2.709,5.426c-0.094,0.125-0.447,0.149-0.447,0.149s-10.382-1.853-20.358,1.01
				c0,0-0.423-0.354-0.645-0.713s-0.419-0.76-0.419-0.76l2.033-4.545v-17.486L141.265,321.957z"/>
			<polygon points="63.097,239.086 130.135,236.328 130.054,246.397 100.134,243.676 			"/>
			<path d="M60.861,310.264c-9.628-17.848,1.305-66.33,1.69-68.335l0.546-2.843l40.139,4.975l-0.225,71.247L60.861,310.264z"/>
			<path fill="#BE1E2D" d="M100.134,246.793l-34.544-4.281c0,0-11.679,48.907-2.463,65.991l36.802,3.311L100.134,246.793z"/>
			<polygon fill="#ED1C24" points="71.603,240.35 102.805,244.008 127.26,240.219 			"/>
			<g>
				<path fill="#2E1010" d="M184.008,302.17h5.366l5.82,14.733l-0.637,4.593c0,0,0.273,1.682-2.91,2.865l-20.507,8.458
					c0,0-17.052-7.864-12.414-16.846L184.008,302.17z"/>
				<path fill="#FECB8A" d="M189.464,311.265c0,0,1.526-5.82-1.647-6.912l-13.267,1.182l-0.405,1.471c0,0,1.224,5.821,5.771,5.821
					h5.457c0,0-1.364,1.554-7.73,0.632l0.273,3.443l6.275,6.184l7.548-2.91l0.546-2.293L189.464,311.265z"/>
				<path fill="#FECB8A" d="M176.641,313.72l-0.909,3.183l6.548,6.821l-6.184,2.728l-6.548-7.275v-5.002l4.597-1.638
					C174.145,312.536,174.726,313.862,176.641,313.72z"/>
				<path fill="#FECB8A" d="M168.548,314.629l-4.126,1c0,0-6.059,3.274-2.421,7.457l8.003,5.275l4.142-1.455l-6.654-7.413
					L168.548,314.629z"/>
			</g>
			<g>
				<path d="M155.725,246.696c0,0,18.279-3.82,20.598,29.875l9.549,16.506c0,0,5.32,7.23-1.637,11.322
					c0,0-15.688,11.186-26.191,11.459c0,0-3.274,0.818-3.683-1.91l-3.82-62.068C150.541,251.879,150.268,247.378,155.725,246.696z"
					/>
				<path fill="#27AAE1" d="M153.632,251.75c0.012-1.113,0.845-1.781,2.476-1.984l0.125-0.016l0.123-0.026c-0.001,0-0.001,0-0.001,0
					c0.005,0,0.398-0.065,1.026-0.065c1.723,0,5.086,0.488,8.244,3.758c4.228,4.377,6.86,12.456,7.61,23.366l0.05,0.716
					l9.993,17.274l0.101,0.137c0.469,0.656,1.638,2.772,1.276,4.481c-0.07,0.33-0.283,1.337-1.989,2.341l-0.116,0.068l-0.111,0.079
					c-4.155,2.959-16.652,10.682-24.477,10.886l-0.393,0.01l-0.179,0.052L153.632,251.75z"/>
			</g>
			<path d="M155.043,315.63c0,0,13.232,0.227,17.597-5.229l-5.32-25.509c0,0-10.64-36.829,3.138-39.286l-8.321-10.778l-19.507,8.458
				L155.043,315.63z"/>
			<path d="M106.798,309.388l48.745,7.515c0,0,6.548-7.275,5.457-22.917l-5.457-51.473h-44.38L106.798,309.388z"/>
			<path fill="#706F8B" d="M110.069,306.763l3.992-61.157l26.663,1.832l11.362,0.781l5.831,46.038
				c0.724,10.541-1.556,12.916-2.819,17.559L110.069,306.763z"/>
			<path d="M117.529,315.63c0,0,23.463-40.015,20.371-59.112c0,0-10.913-18.188-33.831-19.28c0,0-6.053,0.742-3.936,9.556
				L87.154,315.63H117.529z"/>
			<path fill="#27AAE1" d="M90.885,312.536l12.411-65.821l-0.155-0.645c-0.529-2.199-0.479-3.938,0.139-4.895
				c0.329-0.51,0.801-0.735,1.062-0.826c18.72,1.084,28.746,14.549,30.592,17.28c2.015,15.976-15.096,47.598-19.203,54.907H90.885z"
				/>
			<path fill="#27AAE1" d="M157.703,313.129l13.437-3.069c0,0-10.981-45.153-10.64-51.905c0,0-0.477-11.663,7.844-12.823
				l-3.342-3.615c0,0-8.594,5.593-6.889,15.824c1.705,10.231,9.958,50.337,9.958,50.337l-9.413,1.705"/>
			<path d="M173.237,276.783c0,0-0.233,4.268-1.279,4.46c0,0,2.319-0.876,2.183-3.82L173.237,276.783z"/>
			<g>
				<g>
					<path fill="#2E1010" d="M58.973,188.942c-5.122-18.017-9.215-38.196-11.219-48.74c-0.795-2.808-1.324-5.698-1.574-8.599
						c-0.077-0.44-0.116-0.673-0.116-0.673s-1.048-30.703,25.009-46.918c16.555-10.302,36.713-17.551,58.918-17.551
						c44.888,0,81.656,25.516,83.874,58.143c1.071,5.651-0.351,14.294-4.231,25.697c-2.833,8.327-5.934,15.074-6.064,15.357
						l-0.255,0.553l-0.066,0.076c-1.289,3.883-3.12,24.907-4.181,43.547l-0.011,0.141c-1.309,14.277-14.375,36.197-53.087,36.197
						C145.97,246.171,64.94,255.009,58.973,188.942z"/>
					<path fill="#FECB8A" d="M209.284,125.138L209.284,125.138C207.415,94.902,172.632,70.8,129.991,70.8
						c-43.838,0-79.376,25.474-79.376,56.898c0,0.854,0.031,1.704,0.083,2.549l-0.083,0.003c0,0,0.049,0.289,0.143,0.828
						c0.228,2.784,0.73,5.515,1.497,8.177c4.234,22.31-3.344,104.841,90.469,102.495c0,0,48.493,3.317,51.743-32.149
						c0,0,2.438-42.865,4.876-45.672C199.344,163.929,211.77,136.986,209.284,125.138z"/>
				</g>
				
					<linearGradient id="SVGID_1_" gradientUnits="userSpaceOnUse" x1="-373.9589" y1="140.4416" x2="-234.7003" y2="140.4416" gradientTransform="matrix(1 0 0 1 444.248 0)">
					<stop  offset="0" style="stop-color:#FAAA62"/>
					<stop  offset="1" style="stop-color:#FAAA62"/>
				</linearGradient>
				<path fill="url(#SVGID_1_)" d="M82.184,187.14v-57.026l21.508-5.658l-12.383-9.978c0,0,24.969,9.59,42.801,2.77
					c-16.579-3.152-20.321-8.253-20.321-8.253l70.447,17.548l-1.908-11.007l26.954,9.603c0,0,6.486-26.864-44.837-26.479
					c0,0-80.505-17.842-94.158,14.462L82.184,187.14z"/>
				<g>
					<path fill="#FFFFFF" d="M134.74,157.916c0,0-21.673-0.68-22.576,19.902c0,0-3.793,19.561,20.53,20.582
						c0,0,20.829,4.082,21.009-14.629C153.704,183.771,156.052,158.426,134.74,157.916z"/>
					<path d="M113.79,193.807l2.528,3.572c0,0,19.144,5.783,33.593,0C149.911,197.379,126.252,198.91,113.79,193.807z"/>
					
						<linearGradient id="SVGID_2_" gradientUnits="userSpaceOnUse" x1="-310.4108" y1="192.1151" x2="-310.4108" y2="170.6826" gradientTransform="matrix(1 0 0 1 444.248 0)">
						<stop  offset="0" style="stop-color:#C49A6C"/>
						<stop  offset="1" style="stop-color:#603913"/>
					</linearGradient>
					<ellipse fill="url(#SVGID_2_)" cx="133.837" cy="177.487" rx="15.532" ry="18.201"/>
					<path d="M105.843,167.441c0,0,27.091-12.587,48.583,0c0,0-7.766-20.412-43.345-11.567L105.843,167.441z"/>
					<ellipse cx="137.067" cy="176.934" rx="8.103" ry="10.206"/>
					<ellipse fill="#FFFFFF" cx="134.111" cy="171.193" rx="1.693" ry="2.807"/>
					<ellipse opacity="0.27" fill="#FFFFFF" cx="131.537" cy="183.823" rx="2.574" ry="2.424"/>
				</g>
				<path fill="#2E1010" d="M133.637,211.459c0,0,15.657,11.3,27.297,5.311C160.935,216.77,147.942,228.66,133.637,211.459z"/>
				<g>
					<path fill="#FFFFFF" d="M186.216,156.595c0,0-20.412-3.417-14.087,40.863c3.612,3.375,21.853,1.164,23.479-1.898
						c0,0,3.973-11.567,2.528-22.878C198.136,172.681,197.052,156.242,186.216,156.595z"/>
					
						<linearGradient id="SVGID_3_" gradientUnits="userSpaceOnUse" x1="-256.7792" y1="194.7005" x2="-256.439" y2="163.9125" gradientTransform="matrix(1 0 0 1 444.248 0)">
						<stop  offset="0" style="stop-color:#C49A6C"/>
						<stop  offset="1" style="stop-color:#603913"/>
					</linearGradient>
					<ellipse fill="url(#SVGID_3_)" cx="187.658" cy="177.608" rx="11.739" ry="18.796"/>
					<path d="M167.069,166.254c0,0,23.84-7.782,37.747-1.829l-4.154-6.992C200.661,157.433,179.988,147.322,167.069,166.254z"/>
					<path d="M195.604,196.404l-1.445,3.912c0,0-19.505,3.232-25.104-3.912C169.055,196.404,189.103,199.806,195.604,196.404z"/>
				</g>
				<ellipse cx="188.922" cy="177.891" rx="6.321" ry="11.163"/>
				<ellipse fill="#FFFFFF" cx="189.385" cy="170.81" rx="1.693" ry="2.807"/>
				<ellipse opacity="0.27" fill="#FFFFFF" cx="184.237" cy="183.823" rx="2.574" ry="2.424"/>
				<path fill="#2E1010" d="M157.091,198.724c0,0,5.291-0.389,4.774,3.5c0,0,0,3.038-3.484,3.281c0,0,5.678,1.229,6.065-3.396
					C164.447,202.11,163.672,196.44,157.091,198.724z"/>
				<g>
					<path fill="#2E1010" d="M96.136,143.892l62.444,15.947l1.084-14.799l-50.66-18.498L96.136,143.892z M154.652,145.04
						l-1.49,10.971L99.929,143.19l11.514-13.076L154.652,145.04z"/>
					
						<linearGradient id="SVGID_4_" gradientUnits="userSpaceOnUse" x1="-344.3194" y1="143.0628" x2="-289.596" y2="143.0628" gradientTransform="matrix(1 0 0 1 444.248 0)">
						<stop  offset="0" style="stop-color:#7A3118"/>
						<stop  offset="1" style="stop-color:#501F0C"/>
					</linearGradient>
					<polygon fill="url(#SVGID_4_)" points="153.162,156.012 154.652,145.04 111.442,130.114 99.929,143.19 					"/>
					<path fill="#2E1010" d="M174.835,143.892v13.183l33.051-7.697v-16.074L174.835,143.892z M205.854,148.357l-27.633,6.506
						v-10.206l27.633-8.675V148.357z"/>
					
						<linearGradient id="SVGID_5_" gradientUnits="userSpaceOnUse" x1="-266.027" y1="145.4229" x2="-238.3943" y2="145.4229" gradientTransform="matrix(1 0 0 1 444.248 0)">
						<stop  offset="0" style="stop-color:#7A3118"/>
						<stop  offset="1" style="stop-color:#501F0C"/>
					</linearGradient>
					<polygon fill="url(#SVGID_5_)" points="178.221,154.863 205.854,148.357 205.854,135.982 178.221,144.658 					"/>
				</g>
				<g>
					<g>
						
							<linearGradient id="SVGID_6_" gradientUnits="userSpaceOnUse" x1="-283.126" y1="14.7558" x2="-283.126" y2="79.6606" gradientTransform="matrix(1 0 0 1 444.248 0)">
							<stop  offset="0" style="stop-color:#7A3118"/>
							<stop  offset="1" style="stop-color:#501F0C"/>
						</linearGradient>
						<path fill="url(#SVGID_6_)" d="M79.251,126.268c0,0-3.865,18.342-5.866,22.978c0,0-11.725,3.436-12.723,4.671
							c-1,1.238,4.135,32.769,9.467,48.843c0,0-7.332-2.471-11.997-8.037c0,0-3.999-24.421-7.665-27.821l-2.999-2.783
							c0,0-13.129-35.858-9.798-56.569c0,0-7.995,6.181-8.329,17.001c0,0-9.996-16.692,9.329-40.494c0,0-9.329-0.619-15.326,5.873
							c0,0,2.997-20.094,25.655-25.658c0,0,1-13.601,10.329-21.33c9.331-7.728,15.995-15.455,15.995-15.455
							s-6.663,12.056-5.997,19.474c0,0,15.469-12.3,30.132-16.533c14.665-4.232,27.376-10.884,27.376-10.884
							s-15.643,9.675-16.947,19.349c0,0,10.753-7.257,29.332-9.071c18.575-1.813,32.912-5.441,40.407-9.673
							c0,0-7.821,13.906-13.359,19.047c0,0,16.297-3.326,34.22-2.419c17.923,0.907,33.564,1.512,49.209-6.651
							c0,0-11.084,14.511-26.725,21.769c0,0,37.48,17.837,75.934-4.536c0,0-18.249,25.397-44.322,35.977
							c0,0,22.161,2.118,43.344-7.557c0,0-30.96,28.117-66.48,32.35c0,0,10.102,12.094,28.674,12.396
							c0,0-50.835,11.185-92.55-16.327c0,0,12.71,10.582,15.97,18.442c0,0-30.963-10.278-48.56-12.394
							c-17.599-2.117-27.702-3.629-27.702-3.629s10.756,9.977,21.837,10.886c0,0-18.577,3.928-37.804-3.025
							c0,0,3.258,7.558,12.383,9.978c0,0-11.079,6.953-25.094,0L79.251,126.268z"/>
						
							<linearGradient id="SVGID_7_" gradientUnits="userSpaceOnUse" x1="-288.1819" y1="35.5664" x2="-288.1819" y2="124.0032" gradientTransform="matrix(1 0 0 1 444.248 0)">
							<stop  offset="0" style="stop-color:#7D371A"/>
							<stop  offset="1" style="stop-color:#52230F"/>
						</linearGradient>
						<path fill="url(#SVGID_7_)" d="M97.665,36.927c-3.876,5.958-6.631,10.757,3.023,9.533c8.321-1.054,16.48-3.341,24.704-4.884
							c7.29-1.37,16.164-4.504,23.645-2.414c3.832,1.072,4.691,3.206,7.281,5.573c2.956,2.707,6.455,3.775,10.592,4.559
							c12.261,2.325,25.171-1.564,36.802-4.952c-1.63,5.508-5.1,7.098,2.55,9.806c11.338,4.014,24.78,3.806,35.582,7.619
							c-19.687-0.329-41.03-0.019-60.5-3.629c-15.565-2.884-29.595-13.033-45.551-13.05c-10.117-0.01-20.261,1.937-29.962,4.536
							c-4.718,1.263-11.758,4.824-16.491,3.514c-3.137-0.868-4.852-3.403-8.405-3.978c-3.418-0.551-7.467,0.079-10.646,0.918
							c0,0,6.844-5.443,13.2-8.163C89.842,39.195,97.665,36.927,97.665,36.927z"/>
						
							<linearGradient id="SVGID_8_" gradientUnits="userSpaceOnUse" x1="-291.6721" y1="38.707" x2="-291.6721" y2="109.7459" gradientTransform="matrix(1 0 0 1 444.248 0)">
							<stop  offset="0" style="stop-color:#924A2A"/>
							<stop  offset="1" style="stop-color:#683114"/>
						</linearGradient>
						<path fill="url(#SVGID_8_)" d="M79.251,45.847c0,0,8.474-4.838,14.013-6.048c0,0-5.214,8.163,1.958,8.465
							c7.168,0.302,26.07-5.442,34.544-6.651c8.473-1.21,16.293-0.605,23.465,3.627c7.168,4.233,24.113,9.676,42.689,3.629
							c0,0,0.326,4.536,4.238,5.443c3.908,0.907,25.744,5.441,25.744,5.441s-31.938-0.605-47.905-5.141
							c-15.967-4.534-30.96-9.675-37.15-10.58c-6.194-0.907-20.533,0.603-44.648,6.046c0,0-4.888-0.605-7.495-1.814
							C86.095,47.056,79.251,45.847,79.251,45.847z"/>
						
							<linearGradient id="SVGID_9_" gradientUnits="userSpaceOnUse" x1="-283.5334" y1="226.3484" x2="-283.5334" y2="128.3435" gradientTransform="matrix(1 0 0 1 444.248 0)">
							<stop  offset="0" style="stop-color:#62230D"/>
							<stop  offset="1" style="stop-color:#40170A"/>
						</linearGradient>
						<path fill="url(#SVGID_9_)" d="M48.997,64.272C26.34,69.836,23.342,89.931,23.342,89.931
							c5.997-6.492,15.326-5.873,15.326-5.873c-19.325,23.802-9.329,40.494-9.329,40.494c0.335-10.82,8.329-17.001,8.329-17.001
							c-3.331,20.712,4.557,56.881,4.557,56.881l9.482,31.256c4.665,5.566,19.505,12.247,19.505,12.247
							c-5.332-16.073-11.11-44.817-10.11-46.055c0.998-1.235,14.502,15.486,14.502,15.486c2.001-4.637,3.646-51.098,3.646-51.098
							l-0.652-1.813c14.015,6.953,25.094,0,25.094,0c-9.125-2.421-12.383-9.978-12.383-9.978
							c19.227,6.953,37.804,3.025,37.804,3.025c-11.081-0.909-21.837-10.886-21.837-10.886s10.102,1.512,27.702,3.629
							c17.597,2.117,48.56,12.394,48.56,12.394c-3.26-7.86-15.97-18.442-15.97-18.442c41.714,27.512,92.55,16.327,92.55,16.327
							c-18.572-0.303-28.674-12.396-28.674-12.396c35.52-4.233,66.48-32.35,66.48-32.35c-21.183,9.675-43.344,7.557-43.344,7.557
							c22.857-9.276,39.7-29.937,43.507-34.892c-2.112,1.846-4.394,3.652-7.006,5.265c-16.891,10.421-44.641,18.766-64.531,22.54
							c-12.863,2.44-28.087,0.191-39.208,1.614c8.161-1.046,30.677,11.157,18.927,18.856c-12.732,8.339-23.806-4.69-34.318-8.41
							c-6.571-2.325-15.014-3.978-22.078-3.792c3.104,2.589,10.095,5.17,9.45,9.613c-8.552,0.595-18.274-3.797-26.743-5.202
							c-13.837-2.293-28.296-2.548-42.233-1.359c-1.793,0.154-3.559,0.342-5.305,0.562c1.996-2.613,4.59-4.874,7.768-6.51
							c-9.355,1.052-18.963,3.227-27.812,6.49c0.744-8.182,20.423-19.973,7.116-24.906c-6.069-2.249-12.564,3.217-15.706-2.928
							c-2.436-4.763,0.723-11.995,3.102-17.489c-0.062,0.052-0.121,0.104-0.185,0.154C49.997,50.671,48.997,64.272,48.997,64.272z"
							/>
						
							<linearGradient id="SVGID_10_" gradientUnits="userSpaceOnUse" x1="-353.5269" y1="124.6021" x2="-363.4358" y2="115.3328" gradientTransform="matrix(1 0 0 1 444.248 0)">
							<stop  offset="0" style="stop-color:#773217"/>
							<stop  offset="1" style="stop-color:#40170A"/>
						</linearGradient>
						<path fill="url(#SVGID_10_)" d="M72.732,115.384c0,0,10.102,11.791,26.724,9.676c0,0-7.821-4.233-10.427-7.558
							C86.421,114.175,72.732,115.384,72.732,115.384z"/>
						
							<linearGradient id="SVGID_11_" gradientUnits="userSpaceOnUse" x1="-333.1954" y1="118.0126" x2="-345.7802" y2="107.6868" gradientTransform="matrix(1 0 0 1 444.248 0)">
							<stop  offset="0" style="stop-color:#773217"/>
							<stop  offset="1" style="stop-color:#40170A"/>
						</linearGradient>
						<path fill="url(#SVGID_11_)" d="M93.591,112.362c0,0,13.035,5.441,27.046,4.838c0,0-11.731-5.14-14.011-7.559
							C104.346,107.222,93.591,112.362,93.591,112.362z"/>
						
							<linearGradient id="SVGID_12_" gradientUnits="userSpaceOnUse" x1="-283.0864" y1="122.1339" x2="-296.2156" y2="106.7635" gradientTransform="matrix(1 0 0 1 444.248 0)">
							<stop  offset="0" style="stop-color:#773217"/>
							<stop  offset="1" style="stop-color:#40170A"/>
						</linearGradient>
						<path fill="url(#SVGID_12_)" d="M126.832,106.617c0,0,40.41,5.745,53.773,13.605c0,0-13.689-15.42-19.231-17.234
							C155.835,101.174,133.022,107.222,126.832,106.617z"/>
						
							<linearGradient id="SVGID_13_" gradientUnits="userSpaceOnUse" x1="-212.8588" y1="123.4489" x2="-233.9144" y2="112.1106" gradientTransform="matrix(1 0 0 1 444.248 0)">
							<stop  offset="0" style="stop-color:#773217"/>
							<stop  offset="1" style="stop-color:#40170A"/>
						</linearGradient>
						<path fill="url(#SVGID_13_)" d="M185.817,110.849c0,0,31.286,13.91,62.246,9.676c0,0-12.711-6.35-17.923-9.676
							C224.924,107.524,207,112.965,185.817,110.849z"/>
						
							<linearGradient id="SVGID_14_" gradientUnits="userSpaceOnUse" x1="-169.1983" y1="86.8787" x2="-195.3609" y2="94.6307" gradientTransform="matrix(1 0 0 1 444.248 0)">
							<stop  offset="0" style="stop-color:#773217"/>
							<stop  offset="1" style="stop-color:#40170A"/>
						</linearGradient>
						<path fill="url(#SVGID_14_)" d="M235.026,104.5c0,0,31-4.939,47.268-20.228c0.329-0.309,0.648-0.619,0.963-0.935
							c0,0-18.575,3.024-26.722,2.721C248.389,85.756,250.015,101.476,235.026,104.5z"/>
						
							<linearGradient id="SVGID_15_" gradientUnits="userSpaceOnUse" x1="-281.0559" y1="186.7386" x2="-281.0559" y2="174.6451" gradientTransform="matrix(1 0 0 1 444.248 0)">
							<stop  offset="0" style="stop-color:#62230D"/>
							<stop  offset="1" style="stop-color:#361212"/>
						</linearGradient>
						<path fill="url(#SVGID_15_)" d="M298.087,48.443c-2.112,1.846-4.394,3.652-7.006,5.265
							c-16.891,10.421-44.641,18.766-64.531,22.54c-12.863,2.44-28.087,0.191-39.208,1.614c8.161-1.046,30.677,11.157,18.927,18.856
							c-12.732,8.339-23.806-4.69-34.318-8.41c-6.571-2.325-15.014-3.978-22.078-3.792c3.104,2.589,10.095,5.17,9.45,9.613
							c-8.552,0.595-18.274-3.797-26.743-5.202c-13.837-2.293-28.296-2.548-42.233-1.359c-1.793,0.154-3.559,0.342-5.305,0.562
							c1.996-2.613,4.59-4.874,7.768-6.51c-9.355,1.052-18.963,3.227-27.812,6.49c0.744-8.182,20.423-19.973,7.116-24.906
							c-6.069-2.249-12.564,3.217-15.706-2.928c-2.436-4.763,0.723-11.995,3.102-17.489c-0.062,0.052-0.121,0.104-0.185,0.154
							c-9.329,7.729-10.329,21.33-10.329,21.33c-10.702,2.629-17.016,8.5-20.7,13.962c10.226-5.356,25.032-9.235,31.434-2.789
							c5.778,5.816-1.565,15.151-4.35,20.647c15.71-4.742,31.458-4.895,47.985-4.895c22.245,0,43.424,6.585,65.111,7.736
							c-2.014-2.888-4.234-6.109-6.382-8.854c8.726,1.515,16.108,6.319,24.179,9.435c11.022,4.254,23.038,5.384,34.853,5.621
							c-2.405-2.262-3.677-5.674-4.821-8.629c-2.039-5.259-2.467-6.145,2.934-9.694c7.379-4.848,25.005-13.202,34.575-12.442
							c3.087,4.764-5.147,7.793-8.99,9.13c3.778,1.433,9.215-0.551,13.305-1.725C279.167,71.923,294.479,53.138,298.087,48.443z"/>
						<path fill="#2E1010" d="M43.077,101.174c0,0-10.427,5.14-14.011,14.513c0,0-1.958-17.535,14.011-33.56
							c0,0-14.339-1.814-19.553,7.559c-0.023,0.044-0.051,0.095-0.076,0.14c6.002-6.374,15.221-5.769,15.221-5.769
							c-19.325,23.802-9.329,40.494-9.329,40.494c0.335-10.82,8.329-17.001,8.329-17.001c-3.331,20.712,4.266,56.623,4.266,56.623
							l2.999,2.783c0.141,0.131,5.816,0.247,5.957,0.439l-5.525,0.046C45.367,167.441,34.604,121.432,43.077,101.174z"/>
					</g>
				</g>
				<path fill="#2E1010" d="M58.919,157.379c-12.97-2.385-23.966,10.125-23.966,22.571c0,12.446,10.751,22.571,23.966,22.571
					c0,0,17.587-1.486,17.794-15.382C76.919,173.244,75.863,160.495,58.919,157.379z"/>
				<ellipse fill="#FECB8A" cx="58.919" cy="179.95" rx="19.358" ry="18.232"/>
				
					<linearGradient id="SVGID_16_" gradientUnits="userSpaceOnUse" x1="-380.1261" y1="156.7041" x2="-362.0639" y2="156.7041" gradientTransform="matrix(1 0 0 1 444.248 0)">
					<stop  offset="0" style="stop-color:#773217"/>
					<stop  offset="1" style="stop-color:#40170A"/>
				</linearGradient>
				<path fill="url(#SVGID_16_)" d="M77.414,126.268l4.771,60.871h-1.806c0,0-2.893-25.741-16.256-28.328L77.414,126.268z"/>
				
					<linearGradient id="SVGID_17_" gradientUnits="userSpaceOnUse" x1="-374.4081" y1="216.0117" x2="-278.8156" y2="216.0117" gradientTransform="matrix(1 0 0 1 444.248 0)">
					<stop  offset="0" style="stop-color:#FECB8A"/>
					<stop  offset="1" style="stop-color:#FAAA62"/>
				</linearGradient>
				<path fill="url(#SVGID_17_)" d="M82.184,191.804c0,0,11.231,51.328,83.248,45.987c0,0-79.715,16.775-95.592-37.859
					L82.184,191.804z"/>
				
					<linearGradient id="SVGID_18_" gradientUnits="userSpaceOnUse" x1="-399.1692" y1="179.8577" x2="-376.4036" y2="179.8577" gradientTransform="matrix(1 0 0 1 444.248 0)">
					<stop  offset="0" style="stop-color:#FAAA62"/>
					<stop  offset="1" style="stop-color:#FAAA62"/>
				</linearGradient>
				<path fill="url(#SVGID_18_)" d="M45.079,177.487c0,0,10.109-7.963,11.268-2.416c0,0-5.699,8.321,3.573,11.368
					c0,0,3.407,5.012-1,5.189c0,0,10.491,0.706,8.725-6.189c0,0-6.92-1.119-6.764-4.729c0,0,2.419-4.183,5.702-4.001
					c0,0,1.255-8.73-8.98-8.64c0,0-9.21,0.546-12.523,9.822"/>
				<path fill="#2E1010" d="M44.528,179.186c0,0,3.003-12.279,13.435-11.981c0,0,10.432,1.042,11.222,7.294
					c0,0,0.948,4.317-5.216,4.168c0,0-2.37,1.042-1.975,2.382c0,0,0.395,2.382,6.559,1.786c0,0,7.007,11.165-11.67,9.378
					c0,0,13.773-3.424,7.98-7.145c0,0-5.874,0.595-6.071-4.019c0,0,1.022-5.207,5.697-5.21c0,0,0.739-6.814-6.368-6.699
					C58.121,169.139,50.325,169.237,44.528,179.186z"/>
			</g>
			<path fill="#515265" d="M141.265,249.659c0,0,10.367,43.848,0,59.73l8.646,0.876c0,0,6.086-12.55-2.625-60.605H141.265z"/>
			<path fill="#1C75BC" d="M108.089,244.717c0,0,23.081,0.661,12.532,30.512l-11.459,37.26l-18.277,0.047L108.089,244.717z"/>
			<path fill="#2E1010" d="M97.861,323.336c0,0-4.911-7.776-16.779-11.186c-11.868-3.41-13.764-3.069-16.356-2.098
				c-2.592,0.971-7.38,13.284-7.38,13.284s-2.169,11.832,9.14,15.688l10.504,3.82c0,0,15.005,4.229,16.779-4.774
				C93.768,338.068,98.406,330.839,97.861,323.336z"/>
			<path fill="#FECB8A" d="M92.6,331.076c0,0,2.183-3.183,1.728-5.82l-3.683-4.956c0,0-13.019-8.458-24.327-7.412l-5.457,11.095
				c0,0-1.046,10.095,5.82,12.368l0.682-7.912c0.104-0.34,0.193,5.233,0.478,7.836c0.165,1.512,6.207,2.896,6.207,2.896
				l-0.409-9.003l1.864,9.003c0,0,5.547,3.82,10.822,0.455c0,0,4.456-1.819,4.911-6.002c0,0-1.501-4.638-3.774-4.502
				c0,0-1.637,0.409-2.364,2.592c0,0-0.864-2.637,1.228-3.592C86.325,328.12,88.508,326.483,92.6,331.076z"/>
			
				<linearGradient id="SVGID_19_" gradientUnits="userSpaceOnUse" x1="-364.5214" y1="327.1157" x2="-375.5254" y2="316.8392" gradientTransform="matrix(1 0 0 1 444.248 0)">
				<stop  offset="0" style="stop-color:#FECB8A"/>
				<stop  offset="0.4744" style="stop-color:#FCBB77"/>
				<stop  offset="1" style="stop-color:#FAAA62"/>
			</linearGradient>
			<path fill="url(#SVGID_19_)" d="M60.861,323.982l17.734,4.183l5.701-11.267c0,0-9.885-4.92-17.979-4.011L60.861,323.982z"/>
			<path d="M106.378,287.521c0,0,22.659-33.095,6.29-41.462s-30.299,23.819-31.936,29.276l-11.277,22.554
				c0,0-9.276,8.142,0.909,14.075c0,0,15.949,9.206,24.526,4.659s4.576-12.914,4.576-12.914S105.286,292.432,106.378,287.521z"/>
			<path fill="#27AAE1" d="M84.307,275.949c0,0,12.669-31.072,25.765-27.434c0,0,13.446,3.467-4.911,34.74l-3.092-3.638
				c0,0,3.638,5.457-0.546,13.459l-3.607,8.912c0,0-1.486,14.19-10.762,11.005c0,0-18.188-2.457-16.551-9.187
				c0,0,1.819-5.275,4.547-8.003c2.728-2.728,3.274-6.73,3.274-6.73s4.911-12.428,7.457-13.126H84.307z"/>
			<path fill="#1C75BC" d="M99.05,252.538c0,0,14.189,20.592-11.896,23.403c0,0,11.298,25.505-16.378,30.037
				c0,0-0.535,2.885,9.126,5.836l9.389,1.645c0,0,7.291,0.715,8.625-11.471c0,0,9.427-14.824,4.153-22.372l3.092,3.638
				c0,0,17.779-29.102,4.911-34.74C110.072,248.514,106.354,246.239,99.05,252.538z"/>
			
				<linearGradient id="SVGID_20_" gradientUnits="userSpaceOnUse" x1="-282.7258" y1="317.5626" x2="-276.7573" y2="317.5626" gradientTransform="matrix(1 0 0 1 444.248 0)">
				<stop  offset="0" style="stop-color:#FECB8A"/>
				<stop  offset="0.4744" style="stop-color:#FCBB77"/>
				<stop  offset="1" style="stop-color:#FAAA62"/>
			</linearGradient>
			<path fill="url(#SVGID_20_)" d="M161.522,319.494l5.047-0.431l0.921-3.432l-2.984,0.341
				C164.506,315.972,161.944,317.328,161.522,319.494z"/>
			
				<linearGradient id="SVGID_21_" gradientUnits="userSpaceOnUse" x1="-274.7001" y1="315.4234" x2="-268.3342" y2="315.4234" gradientTransform="matrix(1 0 0 1 444.248 0)">
				<stop  offset="0" style="stop-color:#FECB8A"/>
				<stop  offset="0.4744" style="stop-color:#FCBB77"/>
				<stop  offset="1" style="stop-color:#FAAA62"/>
			</linearGradient>
			<path fill="url(#SVGID_21_)" d="M169.548,317.718l5.616-0.815l0.75-2.751c0,0-1.769-0.431-1.769-1.023l-4.597,1.501V317.718z"/>
			
				<linearGradient id="SVGID_22_" gradientUnits="userSpaceOnUse" x1="-267.6881" y1="307.6138" x2="-255.4577" y2="307.6138" gradientTransform="matrix(1 0 0 1 444.248 0)">
				<stop  offset="0" style="stop-color:#FECB8A"/>
				<stop  offset="0.4744" style="stop-color:#FCBB77"/>
				<stop  offset="1" style="stop-color:#FAAA62"/>
			</linearGradient>
			<path fill="url(#SVGID_22_)" d="M183.214,309.105h5.454c0,0,0.597-3.699-0.851-4.161h-4.371l-6.886,4.262
				C176.56,309.206,181.238,311.697,183.214,309.105z"/>
			<path fill="#1C75BC" d="M163.699,255.222c0,0,9.685,19.531,3.791,26.059c0,0,15.46,11.317,10.232,23.663l6.285-2.774
				c0,0,1.376-2.93-0.183-6.399c-0.128-0.284-0.275-0.572-0.444-0.862c-2.238-3.831-10.094-17.411-10.094-17.411
				s-1.328-20.677-8.98-25.282L163.699,255.222z"/>
			<path fill="#BE1E2D" d="M108.089,244.717c0,0,23.299-0.277,0,40.138C108.089,284.855,138.968,248.427,108.089,244.717z"/>
		</g>
	</g>
	<g>
		<g>
			
				<path fill-rule="evenodd" clip-rule="evenodd" fill="none" stroke="#010101" stroke-width="2.7311" stroke-miterlimit="22.9256" d="
				M111.535,319.086h-9.475c-1.5,0-2.728,1.227-2.728,2.732v13.945c0,1.505,1.228,2.732,2.728,2.732h9.475
				c1.499,0,2.728-1.227,2.728-2.732v-13.945C114.263,320.313,113.035,319.086,111.535,319.086z"/>
			<path fill-rule="evenodd" clip-rule="evenodd" fill="#706F8B" d="M111.535,319.086h-9.475c-1.5,0-2.728,1.227-2.728,2.732v13.945
				c0,1.505,1.228,2.732,2.728,2.732h9.475c1.499,0,2.728-1.227,2.728-2.732v-13.945
				C114.263,320.313,113.035,319.086,111.535,319.086z"/>
		</g>
		<path fill-rule="evenodd" clip-rule="evenodd" fill="#515265" d="M100.589,319.086c-0.691,0-1.257,0.566-1.257,1.256v16.898
			c0,0.69,0.566,1.256,1.257,1.256c0.692,0,1.258-0.566,1.258-1.256v-16.898C101.847,319.651,101.281,319.086,100.589,319.086z"/>
		<polygon fill-rule="evenodd" clip-rule="evenodd" fill="#515265" points="101.848,326.452 101.848,327.626 108.587,329.83 
			114.263,328.205 114.263,326.928 108.723,328.504 		"/>
		<g>
			<g>
				
					<path fill-rule="evenodd" clip-rule="evenodd" fill="none" stroke="#010101" stroke-width="1.4949" stroke-miterlimit="22.9256" d="
					M108.652,323.627c-1.005,0-1.824,0.82-1.824,1.826c0,1.005,0.82,1.824,1.824,1.824c1.005,0,1.824-0.819,1.824-1.824
					C110.477,324.446,109.657,323.627,108.652,323.627z"/>
				<path fill-rule="evenodd" clip-rule="evenodd" fill="#FFCD05" d="M108.652,323.627c-1.005,0-1.824,0.82-1.824,1.826
					c0,1.005,0.82,1.824,1.824,1.824c1.005,0,1.824-0.819,1.824-1.824C110.477,324.446,109.657,323.627,108.652,323.627z"/>
			</g>
			<path fill-rule="evenodd" clip-rule="evenodd" fill="#DBB127" d="M109.99,324.904c0,1.008-0.817,1.824-1.824,1.824
				c-0.41,0-0.788-0.135-1.093-0.363c0.317,0.544,0.906,0.911,1.58,0.911c1.008,0,1.824-0.817,1.824-1.825
				c0-0.598-0.288-1.129-0.732-1.461C109.901,324.259,109.99,324.571,109.99,324.904z"/>
			<circle fill-rule="evenodd" clip-rule="evenodd" fill="#F6EB16" cx="108.641" cy="324.735" r="0.888"/>
			<circle fill-rule="evenodd" clip-rule="evenodd" fill="#F6EB16" cx="107.33" cy="325.563" r="0.441"/>
		</g>
	</g>
</g>
</svg>
